<svg xmlns="http://www.w3.org/2000/svg" width="1366" height="768" viewBox="0 0 1366 768"><title>foit</title><g id="af06ed0e-3b9b-40fa-a592-b38d0dd227fd" data-name="Layer 2"><g id="64182180-936f-4692-a022-555e117c65f4" data-name="Layer 1"><rect width="1366" height="768" fill="#fff"/><circle cx="336" cy="264" r="4" fill="#0291b7"/><circle cx="336" cy="292" r="4" fill="#0291b7"/><circle cx="336" cy="320" r="4" fill="#0291b7"/><line x1="382" y1="363" x2="502" y2="363" fill="none" stroke="#007396" stroke-miterlimit="10"/><line x1="574" y1="463" x2="646" y2="463" fill="none" stroke="#007396" stroke-miterlimit="10"/><line x1="317" y1="84.5" x2="389" y2="84.5" fill="none" stroke="#007396" stroke-miterlimit="10"/><line x1="419" y1="84.5" x2="491" y2="84.5" fill="none" stroke="#007396" stroke-miterlimit="10"/><line x1="516" y1="84.5" x2="588" y2="84.5" fill="none" stroke="#007396" stroke-miterlimit="10"/><line x1="610" y1="84.5" x2="682" y2="84.5" fill="none" stroke="#007396" stroke-miterlimit="10"/><path d="M1058.67,77a8.8,8.8,0,1,0-1.77,1.79l5.32,5.32,1.78-1.78Zm-7.05,2.29a7.56,7.56,0,1,1,7.56-7.56A7.56,7.56,0,0,1,1051.62,79.25Z" fill="#0291b7"/></g></g></svg>