<svg xmlns="http://www.w3.org/2000/svg" width="42.43" height="57.84" viewBox="0 0 42.43 57.84"><title>fi-alt</title><g id="a5aea5cf-5473-4cf2-acba-b20cd31407de" data-name="Layer 2"><g id="b2ae6747-3c84-42fa-8bb2-c798d2dd3c13" data-name="Layer 1"><path d="M6,57.84V25.08L2.5,24.53a4.14,4.14,0,0,1-1.82-.8A2,2,0,0,1,0,22.11V18.17H6v-3A17.46,17.46,0,0,1,7,9a12.56,12.56,0,0,1,7.67-7.57,18.17,18.17,0,0,1,6.24-1,17.51,17.51,0,0,1,5.14.74L25.86,6a1.47,1.47,0,0,1-.31.88,1.86,1.86,0,0,1-.72.51,3.73,3.73,0,0,1-1,.23c-.41,0-.83.06-1.25.06a11.71,11.71,0,0,0-3.06.37,5.19,5.19,0,0,0-2.28,1.29,5.88,5.88,0,0,0-1.45,2.45,12.32,12.32,0,0,0-.49,3.72v2.65H25.71V25H15.61v32.8Z" fill="#feff00"/><path d="M42.43,6.16a5.39,5.39,0,0,1-.51,2.34,6.06,6.06,0,0,1-1.34,1.91,6.36,6.36,0,0,1-2,1.31,6.09,6.09,0,0,1-2.42.49,6,6,0,0,1-2.36-.49,6.34,6.34,0,0,1-1.93-1.31,6.22,6.22,0,0,1-1.3-1.91,5.71,5.71,0,0,1-.49-2.34,6.09,6.09,0,0,1,.49-2.42A6,6,0,0,1,33.79.49,5.68,5.68,0,0,1,36.15,0a5.89,5.89,0,0,1,2.42.49,6.63,6.63,0,0,1,2,1.3,6.07,6.07,0,0,1,1.34,2A5.79,5.79,0,0,1,42.43,6.16ZM41.11,17.82v40H31.43v-40Z" fill="#feff00"/></g></g></svg>