<svg xmlns="http://www.w3.org/2000/svg" width="40.09" height="58.12" viewBox="0 0 40.09 58.12"><title>fi</title><g id="bdfcc38c-b535-4ec3-b1db-109886af68c9" data-name="Layer 2"><g id="b6042979-cfac-43cc-a7f7-1b1aeb2a55f4" data-name="Layer 1"><path d="M6,58.12V25.36L2.5,24.81A4.26,4.26,0,0,1,.68,24,2,2,0,0,1,0,22.39V18.45H6V17.17a18.81,18.81,0,0,1,1.21-6.81,14.43,14.43,0,0,1,3.63-5.44,17.22,17.22,0,0,1,6.22-3.61A26.78,26.78,0,0,1,25.94,0c1.09,0,2.2.06,3.33.17a14.7,14.7,0,0,1,2.94.57l-.31,5a1.09,1.09,0,0,1-1,1.07A11.85,11.85,0,0,1,28.67,7a25,25,0,0,0-6.33.66,10.42,10.42,0,0,0-4.14,2A7.24,7.24,0,0,0,16,12.92a14.45,14.45,0,0,0-.68,4.58v1h24.8V58.12H30.46V25.32H15.6v32.8Z" fill="#feff00"/></g></g></svg>