<svg xmlns="http://www.w3.org/2000/svg" width="53.15" height="58.01" viewBox="0 0 53.15 58.01"><title>ft</title><g id="a082248b-6ba7-4585-ab8f-5f070196ee62" data-name="Layer 2"><g id="bc9507ea-6117-4f0b-b2cb-cfe9e8e210bf" data-name="Layer 1"><path d="M41.49,24.64V46.32a4.3,4.3,0,0,0,.94,2.93,3.16,3.16,0,0,0,2.5,1,4.23,4.23,0,0,0,1.5-.22,8,8,0,0,0,1-.44c.3-.16.57-.31.8-.45a1.44,1.44,0,0,1,.7-.22,1.1,1.1,0,0,1,.7.22,3.25,3.25,0,0,1,.59.64l2.88,4.68a14.53,14.53,0,0,1-4.81,2.65,17.71,17.71,0,0,1-5.64.9c-3.48,0-6.14-1-8-2.94s-2.79-4.67-2.81-8.14V24.64H15.6v32.8H6V24.64l-3.47-.55a4.05,4.05,0,0,1-1.81-.8A2,2,0,0,1,0,21.67V17.73H6v-3A17.49,17.49,0,0,1,7,8.57,12.52,12.52,0,0,1,14.66,1,18.41,18.41,0,0,1,20.9,0a16.94,16.94,0,0,1,5.15.74l-.2,4.83a1.41,1.41,0,0,1-.31.88,1.67,1.67,0,0,1-.72.51,3.73,3.73,0,0,1-1,.23c-.41,0-.83.06-1.25.06a12.15,12.15,0,0,0-3.06.37,5.19,5.19,0,0,0-2.28,1.29,6,6,0,0,0-1.43,2.42,12.64,12.64,0,0,0-.49,3.72V17.7h17l2.07-11a2.08,2.08,0,0,1,.74-1.2,2.21,2.21,0,0,1,1.4-.43h5V17.66H52.21v7Z" fill="#feff00"/></g></g></svg>