<svg xmlns="http://www.w3.org/2000/svg" viewBox="0 0 1075 300"><defs><style>.a{fill:plum;}.b{fill:#8fbc8f;}</style></defs><title>practiceArtboard 1</title><path class="a" d="M144.9,111.42h17.88V92.31c0-27.93,15.19-46.79,38.71-46.79,8.82,0,14.45,4.41,14.45,9.8a8.43,8.43,0,0,1-8.57,8.82c-3.92,0-5.88-1.71-7.84-3.67-2.21-2.21-4.66-4.41-9.8-4.41-7.84,0-13.23,6.86-13.23,20.82v34.54h25.72v7.1H176.51v98c0,44.1-27.19,52.92-48,52.92-24.74,0-39.2-15.19-39.2-35.28,0-17.88,12.49-30.87,28.42-31.36,8.08-.25,14.45,4.66,14.45,11a10.1,10.1,0,0,1-10.53,10.29c-3.43,0-5.63-1.22-7.84-2.45a12,12,0,0,0-6.86-2.21c-5.63,0-9.55,5.88-9.55,14.7,0,17.88,13.47,28.17,30.62,28.17,18.62,0,34.79-11.27,34.79-38V118.53H144.9Z"/><path class="a" d="M513.92,231.47c0-21.31-15.19-29.89-28.42-29.89-8.33,0-9.8,5.88-11.27,11.76-1.47,5.63-2.94,11-10.29,11-6.62,0-9.8-6.61-9.8-12,0-10,10-20.33,27.44-20.33C502.9,192,522,206.48,522,231.47c0,24.25-18.62,45.32-47.28,45.32-37.48,0-60.27-21.31-60.51-68.6-11.76,8.08-26,15.68-40.91,15.68-20.33,0-33.07-7.84-33.07-25.23,0-25.23,28.66-34.05,74-40.91V141.31c0-19.11-4.9-26.7-20.09-26.7-16.66,0-26.46,6.13-29.15,18.62-1.47,7.35-5.15,10.29-8.82,10.29-4.9,0-7.35-3.18-7.35-9.06,0-11.76,16.41-26.7,45.32-26.7,18.62,0,33.81,6.86,33.81,33.56V217c0,34.79,20.58,52.67,47.28,52.67C498,269.69,513.92,253,513.92,231.47Zm-99.71-66.88c-35,4.65-58.06,12-58.06,33.56,0,12.74,8.08,18.13,19.35,18.13,13,0,25.72-6.37,38.71-15.43Z"/><path class="a" d="M767.61,97.21c-5.15,0-7.59-2.45-10-4.66-2.21-2.21-4.41-4.41-8.58-4.41-18.13,0-40.18,28.42-48.51,59.29V203c0,9.55,3.43,12.5,17.88,13.72v3.92H668.88v-3.92c14.46-1.22,17.88-4.17,17.88-13.72v-65.9c0-6.12-2.45-8.33-8.33-8.33h-9.55v-2.7l27.19-18.37h4.41v20.09c9.31-24.25,32.83-51.2,57.08-51.2,10.54,0,18.38,4.65,18.38,12,0,4.9-3.19,8.58-8.08,8.58Z"/><path class="a" d="M886.89,137.64c0-15.68,13.72-29.89,36.5-29.89,14.94,0,26.46,3.67,34.05,9.8l2.21-6.12h4.66l6.86,29.64-3.67,1.47c-12-21.07-25.72-27.68-44.1-27.68-17.39,0-26,8.08-26,18.13,0,14,16.17,17.64,34.05,21.31,22.54,4.66,48,9.8,48,35.77,0,20.33-16.9,34.3-40.18,34.3-16.17,0-31.11-5.14-39.69-13.23,2,6.13,3.43,16.41,3.43,29.15,0,26.46-18.37,46.06-41.89,46.06-21.07,0-32.83-11.27-33.32-25.72-.24-9.56,4.66-15.68,12.25-15.92a9.78,9.78,0,0,1,10.29,9.8,12.61,12.61,0,0,1-2.21,6.86,12.49,12.49,0,0,0-2.45,7.35c0,6.37,5.88,10.53,15.44,10.53,23,0,34.79-18.62,34.79-38.46,0-20.09-4.17-36-14-53.9l4.9-2.94c15.68,24.5,29.64,33.32,52.43,33.32,14.7,0,30.38-6.62,30.38-23,0-17.4-19.84-20.83-39.93-24.75C908.45,165.32,886.89,160.42,886.89,137.64Z"/><path d="M145,111.63h17.88V92.52c0-27.93,15.19-46.79,38.71-46.79,8.82,0,14.45,4.41,14.45,9.8a8.43,8.43,0,0,1-8.57,8.82c-8.33,0-7.59-8.08-17.64-8.08-7.84,0-13.23,6.86-13.23,20.82v34.54h25.72v7.1H176.56v84.52c0,9.55,4.65,12.5,19.11,13.72v3.92H145V217c14.45-1.22,17.88-4.17,17.88-13.72V118.73H145Z"/><path d="M235.11,151.8a139.3,139.3,0,0,0-.73,14.46c0,28.17,10.78,51.2,42.14,51.2,16.9,0,30.62-11.27,37.48-28.91l6.86,2.69c-7.6,19.6-23.52,33.32-44.34,33.32-38.46,0-58.06-25.72-58.06-58.31S237.31,108,271.37,108c25.23,0,44.83,14.94,44.83,43.85Zm1.23-7.1h64.92c0-19.35-13-29.64-29.89-29.64C249.56,115.06,240,127.31,236.33,144.7Z"/><path d="M414.69,208.15c-11.76,8.08-26.21,15.92-41.16,15.92-20.33,0-33.07-7.84-33.07-25.23,0-25.23,28.66-34.05,74-40.91V141.52c0-19.11-4.9-26.71-20.09-26.71-16.66,0-26.46,6.13-29.15,18.62-1.47,7.35-5.15,10.29-8.82,10.29-4.9,0-7.35-3.18-7.35-9.06,0-11.76,16.42-26.7,45.32-26.7,18.62,0,33.81,6.86,33.81,33.56v58.06c0,10,2.45,15.19,8.57,15.19,2.69,0,5.88-1,10-3.18v6.86a25.68,25.68,0,0,1-15.92,4.9C422.29,223.34,416.41,218.44,414.69,208.15Zm-.24-7.11V164.79c-35,4.65-58.06,12-58.06,33.56,0,12.74,8.08,18.13,19.35,18.13C388.72,216.48,401.46,210.11,414.45,201Z"/><path d="M521,218.44a44.74,44.74,0,0,1-19.84,4.9c-13,0-24.25-5.63-24.25-26.46V118.73H459V116c18.62-6.61,24-19.35,26.95-40.18h4.66v35.77H521v7.1H490.64v78.64c0,11.51,3.67,17.39,14.45,17.39A40.19,40.19,0,0,0,521,211.58Z"/><path d="M604.56,126.33,631.51,108h4.66v95.3c0,9.55,3.43,12.5,17.88,13.72v3.92a140.72,140.72,0,0,0-31.6,3.67v-12c-9.31,5.63-24.74,12-38.46,12-12.74,0-32.83-5.39-32.83-30.62V137.35c0-6.12-2.45-8.33-8.33-8.33h-9.55v-2.7L560.46,108h4.41V193.7c0,15.68,8.08,22.54,20.82,22.54,13,0,25.48-4.65,36.75-12V137.35c0-6.12-2.45-8.33-8.57-8.33h-9.31Z"/><path d="M742.25,129.51c-8.33,0-11.27-10.29-19.11-10.29-6.86,0-16.17,4.9-22.78,15.19v68.84c0,9.55,3.43,12.5,17.88,13.72v3.92H668.75V217c14.46-1.22,17.88-4.17,17.88-13.72v-65.9c0-6.12-2.45-8.33-8.33-8.33h-9.55v-2.7L695.95,108h4.41V125.1c9.31-11.27,22.78-17.15,33.81-17.15,13.47,0,17.39,6.86,17.39,12.49C751.56,126.33,748.13,129.51,742.25,129.51Z"/><path d="M780.47,151.8a139.44,139.44,0,0,0-.73,14.46c0,28.17,10.78,51.2,42.14,51.2,16.91,0,30.63-11.27,37.48-28.91l6.86,2.69c-7.59,19.6-23.52,33.32-44.34,33.32-38.46,0-58.06-25.72-58.06-58.31S782.68,108,816.73,108c25.23,0,44.83,14.94,44.83,43.85Zm1.23-7.1h64.92c0-19.35-13-29.64-29.89-29.64C794.93,115.06,785.37,127.31,781.7,144.7Z"/><path d="M935.8,155.23c21.32,4.41,43.85,10,43.85,35,0,20.33-16.9,34.3-40.18,34.3-16.17,0-30.62-4.9-39.69-12.25l-2.94,8.58h-4.65l-8.82-35.28,3.67-1.47c15.68,24.5,29.64,33.32,52.43,33.32,14.7,0,30.38-6.62,30.38-23,0-17.39-19.6-20.82-39.69-24.74-21.31-4.17-43.12-8.82-43.12-31.85,0-15.68,13.72-29.89,36.5-29.89,14.94,0,26.46,3.67,34.05,9.8l2.21-6.12h4.66l6.86,29.64-3.67,1.47c-12-21.07-25.72-27.68-44.1-27.68-17.39,0-26,8.08-26,18.13C897.58,148.13,916.2,151.31,935.8,155.23Z"/><path class="b" d="M277.36,38.39l-1.36.4c-2-4.31-4.53-7.39-8.71-7.39-9.37,0-12.63,12.81-12.63,19.36,0,4.62,2.11,8,7.35,8,4.58,0,8.49-3.21,11-7.75l2.11,1.19c-3.26,5.54-7.66,8.93-13.6,8.93-7.35,0-13.16-4.88-13.16-13.07,0-10.12,7.26-19.05,18.09-19.05a10.42,10.42,0,0,1,6.65,2.16l.84-1.5h1.5Z"/><path class="b" d="M291.44,58.24a9.16,9.16,0,0,1-6.51,2.9c-4.58,0-7.48-3.39-7.48-8.14,0-7.35,4.66-13.25,11.75-13.25,2.9,0,5.33,1,6.56,2.73l3.34-2.73h2L297,56.39c-.35,1.41-.18,2.07.7,2.07a4.12,4.12,0,0,0,1.58-.44L298.78,60a7.74,7.74,0,0,1-4,1.06C292.84,61,291.61,60,291.44,58.24Zm.53-3.56L294.34,45a4.27,4.27,0,0,0-4-2.73c-5.24,0-7.44,6.69-7.44,11.35,0,3.52,1.76,4.75,3.87,4.75S290.69,56.61,292,54.67Z"/><path class="b" d="M300.63,60.48,301,59c2.29-.22,2.86-.66,3.21-2.07L306.88,46c.26-1,0-1.36-.84-1.36h-1.5l.35-1.32,7-3.56h2l-.7,2.64a9.22,9.22,0,0,1,6-2.64c2.16,0,3.21,1.1,3.21,2.68a3,3,0,0,1-3,3.26c-2.29,0-2-2.16-3.48-2.16a4.66,4.66,0,0,0-3.43,2.07l-2.82,11.31c-.35,1.41,0,1.85,2.16,2.07l-.4,1.5Z"/><path class="b" d="M319.24,60.48l.35-1.5c2.29-.22,2.86-.66,3.21-2.07L325.49,46c.26-1,0-1.36-.84-1.36h-1.5l.35-1.32,7-3.56h2l-4.27,17.16c-.35,1.41,0,1.85,2.16,2.07l-.4,1.5ZM331.61,29.9a3,3,0,0,1,3.17,3,3.23,3.23,0,0,1-3.39,3.12,2.94,2.94,0,0,1-3.12-2.95A3.2,3.2,0,0,1,331.61,29.9Z"/><path class="b" d="M347.93,60.48,351.49,46c.62-2.33-.4-3.3-2.24-3.3a10.63,10.63,0,0,0-5.19,1.58l-3.12,12.59c-.35,1.41,0,1.85,2.16,2.07l-.4,1.5H332l.35-1.5c2.29-.22,2.86-.66,3.21-2.07L338.2,46c.26-1,0-1.36-.84-1.36h-1.5l.35-1.32,7-3.56h2l-.53,2.11a16.35,16.35,0,0,1,7.17-2.11c2.9,0,6.42,1.06,5.06,6.38l-2.64,10.78c-.35,1.41,0,1.85,2.11,2.07l-.35,1.5Z"/><path class="b" d="M373.8,58.59a8.89,8.89,0,0,1-6.07,2.55c-4.58,0-7.48-3.39-7.48-8.14,0-7.35,4.66-13.25,11.75-13.25,2.9,0,5.32,1,6.56,2.73l3.34-2.73h2l-5,20.15c-1.32,5.5-5.54,9.33-12.1,9.33-5.94,0-8.49-2.33-8.49-4.58A2.68,2.68,0,0,1,361,62c1.63,0,2,1,2.38,2.11.48,1.32,1,2.77,3.83,2.77,3.52,0,4.93-1.67,5.81-5.28Zm1-3.92L377.15,45a4.27,4.27,0,0,0-4-2.73c-5.24,0-7.44,6.69-7.44,11.35,0,3.52,1.76,4.75,3.87,4.75S373.49,56.65,374.77,54.67Z"/><path class="b" d="M409.57,58.24a9.16,9.16,0,0,1-6.51,2.9c-4.58,0-7.48-3.39-7.48-8.14,0-7.35,4.66-13.25,11.75-13.25,2.9,0,5.32,1,6.56,2.73l3.34-2.73h2l-4.09,16.63c-.35,1.41-.18,2.07.7,2.07a4.12,4.12,0,0,0,1.58-.44L416.92,60A7.74,7.74,0,0,1,413,61C411,61,409.75,60,409.57,58.24Zm.53-3.56L412.48,45a4.27,4.27,0,0,0-4-2.73c-5.24,0-7.44,6.69-7.44,11.35,0,3.52,1.76,4.75,3.87,4.75S408.82,56.61,410.1,54.67Z"/><path class="b" d="M425.23,32.58l7-3.56h2L431,42a8.94,8.94,0,0,1,5.81-2.2c4.53,0,7.48,3.39,7.48,8.1,0,7.35-4.66,13.29-11.79,13.29-2.82,0-5.15-.92-6.43-2.51l-3.17,2.51h-2.07l6.38-25.79c.26-1.1,0-1.45-.84-1.45h-1.45Zm4.88,13L427.48,56.3a4.42,4.42,0,0,0,4,2.33c5.19,0,7.39-6.69,7.39-11.4,0-3.48-1.72-4.75-3.83-4.75S431.35,43.84,430.12,45.56Z"/><path class="b" d="M458.59,39.75c6.29,0,10,3.92,10,9.11a12,12,0,0,1-12.37,12.28c-6.29,0-10-4-10-9.11A12,12,0,0,1,458.59,39.75Zm-2.46,19.19c5.19,0,7.22-8.1,7.22-12,0-3-1.36-5-4.62-5-5.19,0-7.17,8.1-7.17,12C451.55,56.92,452.91,58.94,456.12,58.94Z"/><path class="b" d="M485.38,43.32l7-3.56h2l-4.27,17.16c-.35,1.41,0,1.85,2.16,2.07l-.4,1.5a52.67,52.67,0,0,0-8.23.66l.48-2.11a16.36,16.36,0,0,1-7.17,2.11c-2.9,0-6.38-1.1-5.06-6.42l2.2-8.71c.22-1,0-1.36-.88-1.36h-1.45l.31-1.32,7-3.56h2l-3.7,15c-.57,2.38.4,3.34,2.24,3.34a10.84,10.84,0,0,0,5.19-1.54L487.36,46c.26-1,0-1.36-.88-1.36H485Z"/><path class="b" d="M506.63,60.22a13.48,13.48,0,0,1-3.92.75A11.75,11.75,0,0,1,501,61c-2.51-.18-4.18-1.32-3.7-4.45.09-.57.18-1.14.35-1.85l2.95-12h-2.64l.31-1.28c3.92-1.32,6.21-3.74,8-7.61h2l-1.67,6.6h5L511,42.7h-5l-3.12,12.81c-.53,2.11,0,3,1.58,3a7.75,7.75,0,0,0,2.77-.53Z"/><path class="b" d="M541.09,29C549.23,29,555,33.9,555,42c0,10.17-7.22,19.1-17.91,19.1-8.1,0-13.91-4.88-13.91-13.07C523.18,37.95,530.44,29,541.09,29Zm-4.22,29.75c8.41,0,11.93-12.76,11.93-19.41,0-4.58-2.07-8-7.44-8-8.45,0-11.93,12.76-11.93,19.36C529.42,55.38,531.54,58.76,536.86,58.76Z"/><path class="b" d="M551,68.58l.31-1.45c2.29-.22,2.86-.66,3.21-2.11l4.71-19c.26-1,0-1.36-.84-1.36h-1.58l.31-1.32,7.13-3.56h2l-.53,2a8.7,8.7,0,0,1,5.54-2c4.53,0,7.48,3.39,7.48,8.1,0,7.35-4.67,13.29-11.79,13.29a8.54,8.54,0,0,1-5.54-1.8L560,65c-.35,1.45,0,1.89,2.11,2.11l-.35,1.45Zm13.86-23.41-2.82,11.4a4.46,4.46,0,0,0,3.83,2.07c5.19,0,7.39-6.69,7.39-11.4,0-3.48-1.72-4.75-3.83-4.75A6,6,0,0,0,564.89,45.17Z"/><path class="b" d="M586.89,48.82a20,20,0,0,0-.53,4.4c0,3.34,1.63,5.5,5.15,5.5,2.73,0,5.46-1.8,7.57-5l1.8,1.19c-2.6,4-5.72,6.21-10.12,6.21-6.12,0-9.86-3.92-9.86-8.89,0-7.61,5.5-12.5,12.06-12.5,5.54,0,9.24,3,8.27,9.06Zm.7-2.33h9c.62-3-.88-4.53-3.39-4.53C590.37,42,588.6,44,587.59,46.49Z"/><path class="b" d="M617.47,60.48,621,46c.62-2.33-.4-3.3-2.25-3.3a10.63,10.63,0,0,0-5.19,1.58l-3.12,12.59c-.35,1.41,0,1.85,2.16,2.07l-.4,1.5H601.5l.35-1.5c2.29-.22,2.86-.66,3.21-2.07L607.74,46c.26-1,0-1.36-.84-1.36h-1.5l.35-1.32,7-3.56h2l-.53,2.11a16.35,16.35,0,0,1,7.17-2.11c2.9,0,6.42,1.06,5.06,6.38l-2.64,10.78c-.35,1.41,0,1.85,2.11,2.07l-.35,1.5Z"/><path class="b" d="M634.5,60.48l.4-1.5c3.21-.22,3.92-.48,4.67-3.43L645,33.46c.22-.79,0-1.32-.88-1.32-3.83,0-7.48,1.54-11,5.85L632,37.24l4.67-8.54h1.5a1,1,0,0,0,1.19,1h18.57a1.7,1.7,0,0,0,1.63-1H661l1.5,8.54-1.36.44c-1.76-4.27-4.84-5.54-8.36-5.54a1.65,1.65,0,0,0-1.63,1.32l-5.41,22.09c-.75,2.95-.18,3.21,2.95,3.43l-.4,1.5Z"/><path class="b" d="M649.46,66.24a2.71,2.71,0,0,1,2.77-2.77c2.16,0,2.11,2.11,3.65,2.11.62,0,1.67-1.06,2.64-2.55l1.19-1.85-2.38-15.84c-.31-2.29-.44-3.26-2.29-3.48l.35-1.45h10.91L666,41.87c-2.73.22-3.61,1-3.26,3.48L664,54.58l6-9.24c1.63-2.51,1.06-3.26-1.19-3.48l.35-1.45h8l-.35,1.45c-1.67.22-2.64,1.1-4.18,3.48L660.41,64.22c-2.16,3.3-4.36,5-6.87,5C651.26,69.24,649.46,68.14,649.46,66.24Z"/><path class="b" d="M670.71,68.58l.31-1.45c2.29-.22,2.86-.66,3.21-2.11l4.71-19c.26-1,0-1.36-.84-1.36h-1.58l.31-1.32L684,39.75h2l-.53,2a8.7,8.7,0,0,1,5.54-2c4.53,0,7.48,3.39,7.48,8.1,0,7.35-4.66,13.29-11.79,13.29a8.54,8.54,0,0,1-5.54-1.8L679.68,65c-.35,1.45,0,1.89,2.11,2.11l-.35,1.45Zm13.86-23.41-2.82,11.4a4.46,4.46,0,0,0,3.83,2.07c5.19,0,7.39-6.69,7.39-11.4,0-3.48-1.72-4.75-3.83-4.75A6,6,0,0,0,684.57,45.17Z"/><path class="b" d="M706.57,48.82a20,20,0,0,0-.53,4.4c0,3.34,1.63,5.5,5.15,5.5,2.73,0,5.46-1.8,7.57-5l1.8,1.19c-2.6,4-5.72,6.21-10.12,6.21-6.12,0-9.86-3.92-9.86-8.89,0-7.61,5.5-12.5,12.06-12.5,5.54,0,9.24,3,8.27,9.06Zm.7-2.33h9c.62-3-.88-4.53-3.39-4.53C710,42,708.28,44,707.27,46.49Z"/></svg>