<svg xmlns="http://www.w3.org/2000/svg" width="801.1" height="258.22" viewBox="0 0 801.1 258.22"><title>no-ligature</title><g id="d8179f7c-bb49-4aa9-940b-c5aee5459ae6" data-name="Layer 2"><g id="e6922502-c38b-4b75-8823-fdb2b2e74e7e" data-name="Layer 1"><path d="M55,67.2H46.92a3.47,3.47,0,0,1-2.23-.69,4.18,4.18,0,0,1-1.28-1.69L39.19,53.31H15.83L11.62,64.82a3.77,3.77,0,0,1-1.21,1.64,3.4,3.4,0,0,1-2.22.74H0L22.19,10.8H32.88ZM36.5,45.9,29.64,27.14c-.34-.83-.69-1.82-1.05-3s-.73-2.38-1.09-3.71c-.34,1.33-.69,2.57-1.06,3.73s-.71,2.16-1.05,3L18.56,45.9Z" transform="translate(0 -9.24)" fill="#0c404f"/><path d="M100.11,35a2.52,2.52,0,0,1-.82.88,2.09,2.09,0,0,1-1.09.25,3.42,3.42,0,0,1-1.5-.39c-.53-.26-1.15-.55-1.85-.87a16.17,16.17,0,0,0-2.4-.88,11.52,11.52,0,0,0-3.18-.39,7.3,7.3,0,0,0-4.47,1.21A3.77,3.77,0,0,0,83.19,38,3,3,0,0,0,84,40.11a7.32,7.32,0,0,0,2.22,1.54,21.74,21.74,0,0,0,3.14,1.19c1.17.35,2.36.74,3.57,1.15s2.39.89,3.56,1.43a12.33,12.33,0,0,1,3.14,2,8.93,8.93,0,0,1,3.07,7.08,13.51,13.51,0,0,1-1,5.33,11.62,11.62,0,0,1-3.06,4.21,14.57,14.57,0,0,1-5,2.77,21.88,21.88,0,0,1-6.88,1,21.53,21.53,0,0,1-4-.37,24.14,24.14,0,0,1-3.78-1,20.74,20.74,0,0,1-3.36-1.56,16.38,16.38,0,0,1-2.71-2l2.22-3.67a3.16,3.16,0,0,1,1-1,2.77,2.77,0,0,1,1.48-.35,3.2,3.2,0,0,1,1.7.5c.53.34,1.15.7,1.85,1.09a16.65,16.65,0,0,0,2.48,1.1,11.07,11.07,0,0,0,3.6.5,9.17,9.17,0,0,0,3-.41,6.28,6.28,0,0,0,2-1.07,4,4,0,0,0,1.17-1.54,4.72,4.72,0,0,0,.37-1.81,3.23,3.23,0,0,0-.84-2.3,7.3,7.3,0,0,0-2.22-1.56,22,22,0,0,0-3.16-1.19c-1.19-.35-2.4-.74-3.63-1.15a33.6,33.6,0,0,1-3.63-1.47,12.24,12.24,0,0,1-3.16-2.12,9.68,9.68,0,0,1-2.22-3.16A11,11,0,0,1,74,38.77a11.52,11.52,0,0,1,1-4.68,10.86,10.86,0,0,1,2.86-3.88,14.33,14.33,0,0,1,4.72-2.66,19.75,19.75,0,0,1,6.53-1,20,20,0,0,1,7.53,1.36,17.1,17.1,0,0,1,5.66,3.59Z" transform="translate(0 -9.24)" fill="#0c404f"/><path d="M119.1,32.64a20.93,20.93,0,0,1,5.58-4.48A14.93,14.93,0,0,1,132,26.44a13.13,13.13,0,0,1,6,1.37,13.38,13.38,0,0,1,4.68,4,18.88,18.88,0,0,1,3,6.39,32,32,0,0,1,1.07,8.72,27.52,27.52,0,0,1-1.2,8.3,20.28,20.28,0,0,1-3.46,6.63,15.57,15.57,0,0,1-12.53,6,14.36,14.36,0,0,1-5.74-1,14.17,14.17,0,0,1-4.25-2.87V80.26H110V27.18h5.89a2.36,2.36,0,0,1,2.45,1.76Zm.51,24.18a9.45,9.45,0,0,0,3.57,2.81,10.55,10.55,0,0,0,4.19.82,9.14,9.14,0,0,0,3.94-.82,7.67,7.67,0,0,0,3-2.5,12.35,12.35,0,0,0,1.9-4.23,24.24,24.24,0,0,0,.66-6,26.6,26.6,0,0,0-.57-6,11.49,11.49,0,0,0-1.61-4,6.51,6.51,0,0,0-2.56-2.22,7.93,7.93,0,0,0-3.41-.7,9.78,9.78,0,0,0-5.11,1.26,15.79,15.79,0,0,0-4,3.57Z" transform="translate(0 -9.24)" fill="#0c404f"/><path d="M161.69,48.4a19.14,19.14,0,0,0,1.09,5.32,11,11,0,0,0,2.27,3.71,8.81,8.81,0,0,0,3.33,2.18,12.15,12.15,0,0,0,4.27.72,13.4,13.4,0,0,0,4-.54,19.5,19.5,0,0,0,3-1.21c.85-.44,1.59-.85,2.23-1.21a3.64,3.64,0,0,1,1.85-.55,2,2,0,0,1,1.79.9l2.77,3.51a16.14,16.14,0,0,1-3.59,3.14,20.44,20.44,0,0,1-4.15,2,23.25,23.25,0,0,1-4.41,1.07,31.14,31.14,0,0,1-4.35.31A21.43,21.43,0,0,1,164,66.4a17.47,17.47,0,0,1-6.24-4.1,19,19,0,0,1-4.17-6.71,26,26,0,0,1-1.52-9.26,22.21,22.21,0,0,1,1.32-7.7,18.6,18.6,0,0,1,3.81-6.28,17.87,17.87,0,0,1,6-4.23,19.91,19.91,0,0,1,8.06-1.56,19.53,19.53,0,0,1,7,1.21,15.16,15.16,0,0,1,5.5,3.53,16.29,16.29,0,0,1,3.6,5.69,21.25,21.25,0,0,1,1.31,7.7,6.3,6.3,0,0,1-.47,3,1.93,1.93,0,0,1-1.79.76Zm18.37-5.81a11.59,11.59,0,0,0-.52-3.53A8.62,8.62,0,0,0,178,36.15a7.45,7.45,0,0,0-2.68-2,9.14,9.14,0,0,0-3.76-.72A9,9,0,0,0,165,35.84a11.67,11.67,0,0,0-3.06,6.75Z" transform="translate(0 -9.24)" fill="#0c404f"/><path d="M224.6,35.65a4.83,4.83,0,0,1-.84.85,1.92,1.92,0,0,1-1.19.32,2.65,2.65,0,0,1-1.44-.45q-.7-.45-1.68-1a13,13,0,0,0-2.32-1,10.64,10.64,0,0,0-3.33-.45,10.19,10.19,0,0,0-4.45.92,8.52,8.52,0,0,0-3.18,2.63,12,12,0,0,0-1.89,4.15,22.19,22.19,0,0,0-.62,5.52,21.52,21.52,0,0,0,.68,5.7,12.06,12.06,0,0,0,2,4.19,8.46,8.46,0,0,0,3.12,2.57,9.37,9.37,0,0,0,4.13.88,10.19,10.19,0,0,0,3.73-.57,11.55,11.55,0,0,0,2.39-1.24c.65-.46,1.22-.87,1.7-1.25a2.54,2.54,0,0,1,1.62-.57,1.93,1.93,0,0,1,1.75.9l2.77,3.51a17.29,17.29,0,0,1-3.47,3.14,19.19,19.19,0,0,1-3.88,2A20.23,20.23,0,0,1,216,67.47a28.87,28.87,0,0,1-4.23.31,17.78,17.78,0,0,1-7-1.38,16.55,16.55,0,0,1-5.74-4,19.43,19.43,0,0,1-3.88-6.49,25.07,25.07,0,0,1-1.42-8.76,25.3,25.3,0,0,1,1.27-8.17,18.35,18.35,0,0,1,3.72-6.51,17.14,17.14,0,0,1,6.09-4.31,20.89,20.89,0,0,1,8.34-1.56A19.9,19.9,0,0,1,221.07,28a19,19,0,0,1,6.06,4.14Z" transform="translate(0 -9.24)" fill="#0c404f"/><path d="M244.84,15.52a5.47,5.47,0,0,1-.51,2.34A6.33,6.33,0,0,1,243,19.77a6.52,6.52,0,0,1-2,1.31,6.16,6.16,0,0,1-2.42.49,5.9,5.9,0,0,1-2.36-.49,6.33,6.33,0,0,1-1.93-1.31A6.24,6.24,0,0,1,233,17.86a5.76,5.76,0,0,1-.48-2.34A6.15,6.15,0,0,1,233,13.1a6.09,6.09,0,0,1,3.24-3.25,5.74,5.74,0,0,1,2.36-.49,6,6,0,0,1,2.42.49,6.49,6.49,0,0,1,2,1.3,6.39,6.39,0,0,1,1.34,1.95A5.84,5.84,0,0,1,244.84,15.52Zm-1.33,11.66v40h-9.67v-40Z" transform="translate(0 -9.24)" fill="#0c404f"/><path d="M252.41,32.76A23.75,23.75,0,0,1,269,26.44a16.39,16.39,0,0,1,6.28,1.15,13.39,13.39,0,0,1,4.68,3.2,13.78,13.78,0,0,1,2.9,4.89,18.65,18.65,0,0,1,1,6.24V67.2h-4.37a4.41,4.41,0,0,1-2.1-.41,2.82,2.82,0,0,1-1.17-1.66l-.86-2.89a34.78,34.78,0,0,1-3,2.4,17.44,17.44,0,0,1-3,1.74,16.21,16.21,0,0,1-3.33,1.07,19.06,19.06,0,0,1-3.92.37,15.52,15.52,0,0,1-4.68-.68,10.39,10.39,0,0,1-3.71-2,9.18,9.18,0,0,1-2.42-3.39A12.09,12.09,0,0,1,250.5,57a9.28,9.28,0,0,1,.5-3,8.85,8.85,0,0,1,1.66-2.87,13.72,13.72,0,0,1,3-2.57,19.53,19.53,0,0,1,4.51-2.11A37.85,37.85,0,0,1,266.37,45a61.78,61.78,0,0,1,8.11-.69V41.92c0-2.67-.57-4.66-1.72-5.94a6.25,6.25,0,0,0-4.95-1.93,11.89,11.89,0,0,0-3.88.54,16.75,16.75,0,0,0-2.71,1.23l-2.13,1.23a4.21,4.21,0,0,1-2.12.55,2.79,2.79,0,0,1-1.72-.53,4.54,4.54,0,0,1-1.13-1.23Zm22.07,17.35a55,55,0,0,0-7,.73,18.85,18.85,0,0,0-4.56,1.34,6,6,0,0,0-2.46,1.91,4.74,4.74,0,0,0,.76,6,6.5,6.5,0,0,0,3.92,1.09,11.48,11.48,0,0,0,5.13-1.07,15.33,15.33,0,0,0,4.23-3.26Z" transform="translate(0 -9.24)" fill="#0c404f"/><path d="M302.68,9.24v58H293v-58Z" transform="translate(0 -9.24)" fill="#0c404f"/><path d="M323.62,15.52a5.47,5.47,0,0,1-.51,2.34,6.35,6.35,0,0,1-3.31,3.22,6.16,6.16,0,0,1-2.42.49,5.87,5.87,0,0,1-2.36-.49,6.26,6.26,0,0,1-3.24-3.22,5.77,5.77,0,0,1-.49-2.34,6.16,6.16,0,0,1,.49-2.42,6.31,6.31,0,0,1,1.31-1.95A6.19,6.19,0,0,1,315,9.85a5.7,5.7,0,0,1,2.36-.49,6,6,0,0,1,2.42.49,6.49,6.49,0,0,1,2,1.3,6.57,6.57,0,0,1,1.34,1.95A5.84,5.84,0,0,1,323.62,15.52Zm-1.33,11.66v40h-9.67v-40Z" transform="translate(0 -9.24)" fill="#0c404f"/><path d="M356.53,35a2.52,2.52,0,0,1-.82.88,2.07,2.07,0,0,1-1.09.25,3.45,3.45,0,0,1-1.5-.39c-.53-.26-1.15-.55-1.85-.87a16.17,16.17,0,0,0-2.4-.88,11.52,11.52,0,0,0-3.18-.39,7.27,7.27,0,0,0-4.46,1.21A3.76,3.76,0,0,0,339.61,38a3,3,0,0,0,.84,2.16,7.45,7.45,0,0,0,2.22,1.54,21.74,21.74,0,0,0,3.14,1.19c1.17.35,2.36.74,3.57,1.15s2.4.89,3.57,1.43a12.5,12.5,0,0,1,3.14,2,9.44,9.44,0,0,1,2.22,3,9.3,9.3,0,0,1,.84,4.13,13.51,13.51,0,0,1-1,5.33,11.62,11.62,0,0,1-3.06,4.21,14.57,14.57,0,0,1-5,2.77,21.83,21.83,0,0,1-6.88,1,21.53,21.53,0,0,1-4-.37,24.45,24.45,0,0,1-3.78-1A20.74,20.74,0,0,1,332,64.86a16.81,16.81,0,0,1-2.71-2l2.23-3.67a3,3,0,0,1,1-1,2.77,2.77,0,0,1,1.48-.35,3.17,3.17,0,0,1,1.7.5c.53.34,1.15.7,1.85,1.09a16.65,16.65,0,0,0,2.48,1.1,11.11,11.11,0,0,0,3.6.5,9.17,9.17,0,0,0,2.95-.41,6.28,6.28,0,0,0,2-1.07,4,4,0,0,0,1.17-1.54,4.72,4.72,0,0,0,.37-1.81,3.23,3.23,0,0,0-.84-2.3,7.3,7.3,0,0,0-2.22-1.56,22,22,0,0,0-3.16-1.19c-1.19-.35-2.39-.74-3.63-1.15a35.34,35.34,0,0,1-3.63-1.47,12.24,12.24,0,0,1-3.16-2.12,9.68,9.68,0,0,1-2.22-3.16,11,11,0,0,1-.84-4.52,11.52,11.52,0,0,1,1-4.68,10.77,10.77,0,0,1,2.87-3.88A14.28,14.28,0,0,1,339,27.55a21.76,21.76,0,0,1,14.06.37,17,17,0,0,1,5.66,3.59Z" transform="translate(0 -9.24)" fill="#0c404f"/><path d="M379.74,67.82q-5.24,0-8-2.94t-2.78-8.14V34.4h-4.1a1.89,1.89,0,0,1-1.33-.51,2,2,0,0,1-.54-1.52V28.55l6.43-1.06,2-10.92a2.15,2.15,0,0,1,.74-1.2,2.2,2.2,0,0,1,1.41-.43h5V27.53h10.68V34.4H378.57V56.08a4.29,4.29,0,0,0,.92,2.93A3.15,3.15,0,0,0,382,60.06a4.59,4.59,0,0,0,1.5-.21,9.16,9.16,0,0,0,1.05-.45c.3-.16.57-.31.8-.45a1.4,1.4,0,0,1,.71-.22,1.12,1.12,0,0,1,.7.22,3.44,3.44,0,0,1,.58.64l2.89,4.68a14.42,14.42,0,0,1-4.84,2.65A17.91,17.91,0,0,1,379.74,67.82Z" transform="translate(0 -9.24)" fill="#0c404f"/><path d="M417.18,67.2V34.44l-3.47-.55a4.13,4.13,0,0,1-1.82-.8,2,2,0,0,1-.68-1.62V27.53h6v-3a17.26,17.26,0,0,1,1-6.16,12.54,12.54,0,0,1,7.67-7.57,18.15,18.15,0,0,1,6.24-1,17.3,17.3,0,0,1,5.14.74l-.19,4.83a1.54,1.54,0,0,1-.31.88,1.89,1.89,0,0,1-.72.51,3.89,3.89,0,0,1-1,.23,12.18,12.18,0,0,1-1.25.06,11.88,11.88,0,0,0-3.06.37,5.15,5.15,0,0,0-2.28,1.29A5.83,5.83,0,0,0,427,21.16a12,12,0,0,0-.49,3.72v2.65h10.41V34.4h-10.1V67.2Z" transform="translate(0 -9.24)" fill="#0c404f"/><path d="M453.64,15.52a5.47,5.47,0,0,1-.51,2.34,6.16,6.16,0,0,1-1.34,1.91,6.52,6.52,0,0,1-2,1.31,6.12,6.12,0,0,1-2.42.49,5.9,5.9,0,0,1-2.36-.49,6.33,6.33,0,0,1-1.93-1.31,6.22,6.22,0,0,1-1.3-1.91,5.61,5.61,0,0,1-.49-2.34,6,6,0,0,1,.49-2.42A6,6,0,0,1,445,9.85a5.74,5.74,0,0,1,2.36-.49,6,6,0,0,1,2.42.49,6.49,6.49,0,0,1,2,1.3,6.22,6.22,0,0,1,1.34,1.95A5.84,5.84,0,0,1,453.64,15.52Zm-1.32,11.66v40h-9.68v-40Z" transform="translate(0 -9.24)" fill="#0c404f"/><path d="M471.15,32.1a25.92,25.92,0,0,1,2.56-2.25,16.31,16.31,0,0,1,2.84-1.75A15.92,15.92,0,0,1,479.77,27a16.32,16.32,0,0,1,3.75-.41,14.37,14.37,0,0,1,5.81,1.11,11.45,11.45,0,0,1,4.23,3.12,13.66,13.66,0,0,1,2.57,4.8,20.2,20.2,0,0,1,.88,6.14V67.2h-9.63V41.73a8.58,8.58,0,0,0-1.68-5.67,6.28,6.28,0,0,0-5.11-2,10,10,0,0,0-4.68,1.13,16.58,16.58,0,0,0-4.13,3.08V67.2h-9.64v-40H468a2.37,2.37,0,0,1,2.46,1.76Z" transform="translate(0 -9.24)" fill="#0c404f"/><path d="M505.2,32.76a23.75,23.75,0,0,1,16.61-6.32,16.35,16.35,0,0,1,6.28,1.15,13.3,13.3,0,0,1,4.68,3.2,13.66,13.66,0,0,1,2.91,4.89,18.9,18.9,0,0,1,1,6.24V67.2H532.3a4.41,4.41,0,0,1-2.1-.41A2.87,2.87,0,0,1,529,65.13l-.86-2.89a34.71,34.71,0,0,1-3,2.4,17.52,17.52,0,0,1-3,1.74,16.21,16.21,0,0,1-3.33,1.07,19,19,0,0,1-3.92.37,15.52,15.52,0,0,1-4.68-.68,10.39,10.39,0,0,1-3.71-2,9.16,9.16,0,0,1-2.41-3.39,12.08,12.08,0,0,1-.86-4.72,9.3,9.3,0,0,1,.51-3,8.82,8.82,0,0,1,1.65-2.87,13.55,13.55,0,0,1,3-2.57,19.25,19.25,0,0,1,4.5-2.11A38.1,38.1,0,0,1,519.16,45a61.93,61.93,0,0,1,8.11-.69V41.92c0-2.67-.57-4.66-1.71-5.94a6.29,6.29,0,0,0-5-1.93,11.89,11.89,0,0,0-3.88.54A17.16,17.16,0,0,0,514,35.82c-.78.46-1.48.87-2.12,1.23a4.28,4.28,0,0,1-2.13.55,2.76,2.76,0,0,1-1.71-.53,4.25,4.25,0,0,1-1.13-1.23Zm22.07,17.35a55,55,0,0,0-7,.73,19,19,0,0,0-4.56,1.34,6.18,6.18,0,0,0-2.46,1.91,4.74,4.74,0,0,0,.76,6,6.52,6.52,0,0,0,3.92,1.09A11.48,11.48,0,0,0,523,60.12a15,15,0,0,0,4.23-3.26Z" transform="translate(0 -9.24)" fill="#0c404f"/><path d="M554.73,32.1a25.81,25.81,0,0,1,2.55-2.25,16.78,16.78,0,0,1,2.85-1.75A15.71,15.71,0,0,1,563.35,27a16.23,16.23,0,0,1,3.74-.41,14.34,14.34,0,0,1,5.81,1.11,11.45,11.45,0,0,1,4.23,3.12,13.68,13.68,0,0,1,2.58,4.8,20.51,20.51,0,0,1,.88,6.14V67.2H571V41.73a8.64,8.64,0,0,0-1.67-5.67,6.29,6.29,0,0,0-5.11-2,9.92,9.92,0,0,0-4.68,1.13,16.62,16.62,0,0,0-4.14,3.08V67.2h-9.63v-40h5.89a2.37,2.37,0,0,1,2.46,1.76Z" transform="translate(0 -9.24)" fill="#0c404f"/><path d="M618.38,35.65a4.83,4.83,0,0,1-.84.85,1.92,1.92,0,0,1-1.19.32,2.6,2.6,0,0,1-1.44-.45q-.7-.45-1.68-1a13,13,0,0,0-2.32-1,10.66,10.66,0,0,0-3.34-.45,10.15,10.15,0,0,0-4.44.92A8.37,8.37,0,0,0,600,37.44a11.66,11.66,0,0,0-1.89,4.15,22.16,22.16,0,0,0-.63,5.52,21.5,21.5,0,0,0,.69,5.7,12.06,12.06,0,0,0,2,4.19,8.3,8.3,0,0,0,3.12,2.57,9.37,9.37,0,0,0,4.13.88,10.13,10.13,0,0,0,3.72-.57,11.64,11.64,0,0,0,2.4-1.24c.65-.46,1.22-.87,1.7-1.25a2.54,2.54,0,0,1,1.62-.57,2,2,0,0,1,1.75.9l2.77,3.51a17.29,17.29,0,0,1-3.47,3.14,19.19,19.19,0,0,1-3.88,2,20.4,20.4,0,0,1-4.13,1.07,28.9,28.9,0,0,1-4.24.31,17.81,17.81,0,0,1-7-1.38,16.61,16.61,0,0,1-5.73-4A19.27,19.27,0,0,1,589,55.87a25.07,25.07,0,0,1-1.42-8.76,25.58,25.58,0,0,1,1.26-8.17,18.52,18.52,0,0,1,3.73-6.51,17.19,17.19,0,0,1,6.08-4.31A21,21,0,0,1,607,26.56,19.9,19.9,0,0,1,614.85,28a19,19,0,0,1,6.06,4.14Z" transform="translate(0 -9.24)" fill="#0c404f"/><path d="M638.62,15.52a5.47,5.47,0,0,1-.51,2.34,6.35,6.35,0,0,1-3.31,3.22,6.16,6.16,0,0,1-2.42.49,5.87,5.87,0,0,1-2.36-.49,6.26,6.26,0,0,1-3.24-3.22,5.77,5.77,0,0,1-.49-2.34,6.16,6.16,0,0,1,.49-2.42,6.31,6.31,0,0,1,1.31-1.95A6.19,6.19,0,0,1,630,9.85a5.7,5.7,0,0,1,2.36-.49,6,6,0,0,1,2.42.49,6.49,6.49,0,0,1,2,1.3,6.57,6.57,0,0,1,1.34,1.95A5.84,5.84,0,0,1,638.62,15.52Zm-1.33,11.66v40h-9.67v-40Z" transform="translate(0 -9.24)" fill="#0c404f"/><path d="M646.18,32.76a23.77,23.77,0,0,1,16.62-6.32,16.39,16.39,0,0,1,6.28,1.15,13.49,13.49,0,0,1,4.68,3.2,13.78,13.78,0,0,1,2.9,4.89,18.65,18.65,0,0,1,1,6.24V67.2h-4.37a4.49,4.49,0,0,1-2.11-.41A2.91,2.91,0,0,1,670,65.13l-.86-2.89a34.71,34.71,0,0,1-3,2.4,17.44,17.44,0,0,1-3,1.74,16.11,16.11,0,0,1-3.34,1.07,19,19,0,0,1-3.92.37,15.52,15.52,0,0,1-4.68-.68,10.34,10.34,0,0,1-3.7-2,9.18,9.18,0,0,1-2.42-3.39,12.08,12.08,0,0,1-.86-4.72,9.3,9.3,0,0,1,.51-3,8.85,8.85,0,0,1,1.66-2.87,13.49,13.49,0,0,1,3-2.57,19.25,19.25,0,0,1,4.5-2.11A38.24,38.24,0,0,1,660.15,45a61.62,61.62,0,0,1,8.11-.69V41.92c0-2.67-.57-4.66-1.72-5.94a6.25,6.25,0,0,0-4.95-1.93,11.85,11.85,0,0,0-3.88.54A16.75,16.75,0,0,0,655,35.82l-2.13,1.23a4.24,4.24,0,0,1-2.12.55,2.79,2.79,0,0,1-1.72-.53,4.39,4.39,0,0,1-1.13-1.23Zm22.08,17.35a54.57,54.57,0,0,0-7,.73,19.08,19.08,0,0,0-4.57,1.34,6.07,6.07,0,0,0-2.45,1.91,4.11,4.11,0,0,0-.74,2.38A4.19,4.19,0,0,0,655,60.1a6.5,6.5,0,0,0,3.92,1.09A11.55,11.55,0,0,0,664,60.12a15.33,15.33,0,0,0,4.23-3.26Z" transform="translate(0 -9.24)" fill="#0c404f"/><path d="M696.45,9.24v58h-9.63v-58Z" transform="translate(0 -9.24)" fill="#0c404f"/><path d="M29.6,128.58a2.52,2.52,0,0,1-.82.88,2.09,2.09,0,0,1-1.09.25,3.42,3.42,0,0,1-1.5-.39c-.53-.26-1.15-.55-1.85-.87a17.05,17.05,0,0,0-2.4-.88,11.52,11.52,0,0,0-3.18-.39,7.3,7.3,0,0,0-4.47,1.21,3.76,3.76,0,0,0-1.62,3.16,3,3,0,0,0,.84,2.16,7.37,7.37,0,0,0,2.23,1.54,21.74,21.74,0,0,0,3.14,1.19c1.17.35,2.36.74,3.56,1.15s2.4.89,3.57,1.43a12.33,12.33,0,0,1,3.14,2,9.32,9.32,0,0,1,2.23,3,9.44,9.44,0,0,1,.83,4.13,13.42,13.42,0,0,1-1,5.32,11.58,11.58,0,0,1-3.06,4.22,14.57,14.57,0,0,1-5,2.77,21.9,21.9,0,0,1-6.89,1,21.5,21.5,0,0,1-4-.37,24.27,24.27,0,0,1-3.79-1,21.94,21.94,0,0,1-3.35-1.56,16.38,16.38,0,0,1-2.71-2l2.22-3.67a3.16,3.16,0,0,1,1-1,2.77,2.77,0,0,1,1.48-.35,3.14,3.14,0,0,1,1.69.5c.54.34,1.16.7,1.86,1.09a16.51,16.51,0,0,0,2.47,1.1,11.17,11.17,0,0,0,3.61.5,9.17,9.17,0,0,0,2.95-.41,6.12,6.12,0,0,0,2-1.07,3.84,3.84,0,0,0,1.17-1.54,4.56,4.56,0,0,0,.38-1.81,3.27,3.27,0,0,0-.84-2.3A7.23,7.23,0,0,0,20.14,146,20.13,20.13,0,0,0,17,144.79c-1.18-.35-2.39-.74-3.62-1.15a33.6,33.6,0,0,1-3.63-1.47,12.32,12.32,0,0,1-3.16-2.12,9.68,9.68,0,0,1-2.22-3.16,11,11,0,0,1-.84-4.52,11.51,11.51,0,0,1,1-4.68,10.88,10.88,0,0,1,2.87-3.88,14.23,14.23,0,0,1,4.72-2.66,19.75,19.75,0,0,1,6.53-1,20,20,0,0,1,7.53,1.36,17.1,17.1,0,0,1,5.66,3.59Z" transform="translate(0 -9.24)" fill="#0c404f"/><path d="M46.88,142A18.79,18.79,0,0,0,48,147.32,11,11,0,0,0,50.23,151a8.93,8.93,0,0,0,3.34,2.18,12.11,12.11,0,0,0,4.27.72,13.33,13.33,0,0,0,4-.54,20.08,20.08,0,0,0,3-1.21c.84-.44,1.58-.85,2.22-1.21a3.67,3.67,0,0,1,1.85-.55,2,2,0,0,1,1.8.9l2.77,3.51A16.37,16.37,0,0,1,69.89,158a20.52,20.52,0,0,1-4.16,2,23.33,23.33,0,0,1-4.4,1.07,31.35,31.35,0,0,1-4.35.31A21.43,21.43,0,0,1,49.22,160,17.47,17.47,0,0,1,43,155.9a19.18,19.18,0,0,1-4.18-6.71,26,26,0,0,1-1.52-9.26,22.21,22.21,0,0,1,1.33-7.7,18.42,18.42,0,0,1,3.8-6.28,17.91,17.91,0,0,1,6.05-4.23,19.9,19.9,0,0,1,8-1.56,19.49,19.49,0,0,1,7,1.21A15.08,15.08,0,0,1,69,124.9a16.31,16.31,0,0,1,3.61,5.69,21.25,21.25,0,0,1,1.31,7.7,6.3,6.3,0,0,1-.47,3,2,2,0,0,1-1.8.76Zm18.37-5.81a11.59,11.59,0,0,0-.53-3.53,8.36,8.36,0,0,0-1.58-2.91,7.33,7.33,0,0,0-2.67-2,9.17,9.17,0,0,0-3.76-.72,8.92,8.92,0,0,0-6.58,2.38,11.74,11.74,0,0,0-3.06,6.75Z" transform="translate(0 -9.24)" fill="#0c404f"/><path d="M90.21,127.72a17.16,17.16,0,0,1,4.44-5.63,9.48,9.48,0,0,1,6.09-2,7.41,7.41,0,0,1,4.44,1.21l-.62,7.22a1.84,1.84,0,0,1-.57,1,1.58,1.58,0,0,1-1,.29,11.3,11.3,0,0,1-1.74-.19,13.31,13.31,0,0,0-2.24-.2,8.11,8.11,0,0,0-2.85.47,7,7,0,0,0-2.24,1.35,9,9,0,0,0-1.75,2.12,19.91,19.91,0,0,0-1.43,2.85V160.8H81.12v-40h5.65a3.12,3.12,0,0,1,2.07.53,3.09,3.09,0,0,1,.78,1.89Z" transform="translate(0 -9.24)" fill="#0c404f"/><path d="M146.29,120.78l-15.88,40h-8.73l-15.88-40h8a3,3,0,0,1,1.81.51,2.38,2.38,0,0,1,1,1.29L124.25,144c.42,1.25.78,2.47,1.09,3.66s.59,2.4.82,3.59c.26-1.19.55-2.39.86-3.59s.69-2.41,1.13-3.66L136,122.58a2.68,2.68,0,0,1,1-1.29,2.79,2.79,0,0,1,1.68-.51Z" transform="translate(0 -9.24)" fill="#0c404f"/><path d="M162.71,109.12a5.47,5.47,0,0,1-.51,2.34,6.42,6.42,0,0,1-3.32,3.22,6.11,6.11,0,0,1-2.41.49,5.87,5.87,0,0,1-2.36-.49,6.26,6.26,0,0,1-3.24-3.22,5.61,5.61,0,0,1-.49-2.34,6,6,0,0,1,.49-2.42,6.31,6.31,0,0,1,1.31-2,6.19,6.19,0,0,1,1.93-1.3,5.7,5.7,0,0,1,2.36-.49,5.94,5.94,0,0,1,2.41.49,6.23,6.23,0,0,1,3.32,3.25A5.84,5.84,0,0,1,162.71,109.12Zm-1.33,11.66v40h-9.67v-40Z" transform="translate(0 -9.24)" fill="#0c404f"/><path d="M199.87,129.25a4.49,4.49,0,0,1-.83.85,2,2,0,0,1-1.2.32,2.65,2.65,0,0,1-1.44-.45c-.47-.3-1-.64-1.67-1a13.12,13.12,0,0,0-2.33-1,10.55,10.55,0,0,0-3.33-.45,10.22,10.22,0,0,0-4.45.92,8.41,8.41,0,0,0-3.17,2.63,11.84,11.84,0,0,0-1.9,4.15,22.67,22.67,0,0,0-.62,5.52,21.94,21.94,0,0,0,.68,5.7,12.24,12.24,0,0,0,2,4.19,8.46,8.46,0,0,0,3.12,2.57,9.39,9.39,0,0,0,4.14.88,10.17,10.17,0,0,0,3.72-.57,11.64,11.64,0,0,0,2.4-1.24c.65-.46,1.21-.88,1.7-1.25a2.54,2.54,0,0,1,1.61-.57,2,2,0,0,1,1.76.9l2.77,3.51a17.56,17.56,0,0,1-3.47,3.14,19.19,19.19,0,0,1-3.88,2,20.32,20.32,0,0,1-4.14,1.07,28.67,28.67,0,0,1-4.23.31,17.78,17.78,0,0,1-7-1.38,16.52,16.52,0,0,1-5.73-4,19.27,19.27,0,0,1-3.88-6.49,25.07,25.07,0,0,1-1.43-8.76,25.58,25.58,0,0,1,1.27-8.17,18.37,18.37,0,0,1,3.73-6.51,16.89,16.89,0,0,1,6.08-4.31,21,21,0,0,1,8.35-1.56,19.88,19.88,0,0,1,7.85,1.44,19.17,19.17,0,0,1,6.07,4.14Z" transform="translate(0 -9.24)" fill="#0c404f"/><path d="M215.51,142a19.14,19.14,0,0,0,1.09,5.32,11,11,0,0,0,2.27,3.71,8.81,8.81,0,0,0,3.33,2.18,12.15,12.15,0,0,0,4.27.72,13.4,13.4,0,0,0,4-.54,19.5,19.5,0,0,0,3-1.21c.85-.44,1.59-.85,2.23-1.21a3.64,3.64,0,0,1,1.85-.55,2,2,0,0,1,1.79.9l2.77,3.51a16.14,16.14,0,0,1-3.59,3.14,20.44,20.44,0,0,1-4.15,2,23.25,23.25,0,0,1-4.41,1.07,31.14,31.14,0,0,1-4.35.31,21.43,21.43,0,0,1-7.76-1.38,17.47,17.47,0,0,1-6.24-4.1,19,19,0,0,1-4.17-6.71,26,26,0,0,1-1.52-9.26,22,22,0,0,1,1.33-7.7,18.42,18.42,0,0,1,3.8-6.28,17.87,17.87,0,0,1,6-4.23,20,20,0,0,1,8.06-1.56,19.53,19.53,0,0,1,7,1.21,15.16,15.16,0,0,1,5.5,3.53,16.29,16.29,0,0,1,3.6,5.69,21.25,21.25,0,0,1,1.31,7.7,6.3,6.3,0,0,1-.47,3,2,2,0,0,1-1.79.76Zm18.37-5.81a11.59,11.59,0,0,0-.52-3.53,8.53,8.53,0,0,0-1.58-2.91,7.45,7.45,0,0,0-2.68-2,9.14,9.14,0,0,0-3.76-.72,8.91,8.91,0,0,0-6.57,2.38,11.67,11.67,0,0,0-3.06,6.75Z" transform="translate(0 -9.24)" fill="#0c404f"/><path d="M274.17,128.58a2.61,2.61,0,0,1-.82.88,2.12,2.12,0,0,1-1.09.25,3.42,3.42,0,0,1-1.5-.39c-.54-.26-1.15-.55-1.86-.87a16.17,16.17,0,0,0-2.4-.88,11.4,11.4,0,0,0-3.17-.39,7.3,7.3,0,0,0-4.47,1.21,3.76,3.76,0,0,0-1.62,3.16,3,3,0,0,0,.84,2.16,7.45,7.45,0,0,0,2.22,1.54,22.2,22.2,0,0,0,3.14,1.19c1.17.35,2.36.74,3.57,1.15s2.4.89,3.57,1.43a12.33,12.33,0,0,1,3.14,2,9.44,9.44,0,0,1,2.22,3,9.3,9.3,0,0,1,.84,4.13,13.42,13.42,0,0,1-1,5.32,11.58,11.58,0,0,1-3.06,4.22,14.71,14.71,0,0,1-5,2.77,23.56,23.56,0,0,1-10.92.62,24.45,24.45,0,0,1-3.78-1,21.09,21.09,0,0,1-3.35-1.56,16.38,16.38,0,0,1-2.71-2l2.22-3.67a3.14,3.14,0,0,1,1-1,2.81,2.81,0,0,1,1.49-.35,3.17,3.17,0,0,1,1.69.5c.54.34,1.15.7,1.85,1.09a17.13,17.13,0,0,0,2.48,1.1,11.13,11.13,0,0,0,3.61.5,9.15,9.15,0,0,0,2.94-.41,6.18,6.18,0,0,0,2-1.07,4,4,0,0,0,1.17-1.54,4.55,4.55,0,0,0,.37-1.81,3.23,3.23,0,0,0-.84-2.3,7.3,7.3,0,0,0-2.22-1.56,20.51,20.51,0,0,0-3.16-1.19c-1.18-.35-2.39-.74-3.63-1.15a34.29,34.29,0,0,1-3.62-1.47,12.15,12.15,0,0,1-3.16-2.12,9.53,9.53,0,0,1-2.22-3.16,11,11,0,0,1-.84-4.52,11.51,11.51,0,0,1,1-4.68,10.88,10.88,0,0,1,2.87-3.88,14.23,14.23,0,0,1,4.72-2.66,19.7,19.7,0,0,1,6.53-1,20,20,0,0,1,7.53,1.36,17.05,17.05,0,0,1,5.65,3.59Z" transform="translate(0 -9.24)" fill="#0c404f"/><path d="M327.4,128.58a2.52,2.52,0,0,1-.82.88,2.09,2.09,0,0,1-1.09.25,3.42,3.42,0,0,1-1.5-.39c-.53-.26-1.15-.55-1.85-.87a16.17,16.17,0,0,0-2.4-.88,11.52,11.52,0,0,0-3.18-.39,7.25,7.25,0,0,0-4.46,1.21,3.76,3.76,0,0,0-1.62,3.16,3,3,0,0,0,.84,2.16,7.45,7.45,0,0,0,2.22,1.54,21.74,21.74,0,0,0,3.14,1.19c1.17.35,2.36.74,3.57,1.15s2.4.89,3.57,1.43a12.5,12.5,0,0,1,3.14,2,9.44,9.44,0,0,1,2.22,3,9.3,9.3,0,0,1,.84,4.13,13.43,13.43,0,0,1-1,5.32,11.58,11.58,0,0,1-3.06,4.22,14.57,14.57,0,0,1-5,2.77,21.83,21.83,0,0,1-6.88,1,21.53,21.53,0,0,1-4-.37,24.45,24.45,0,0,1-3.78-1,21.62,21.62,0,0,1-3.36-1.56,16.81,16.81,0,0,1-2.71-2l2.23-3.67a3,3,0,0,1,1-1,2.77,2.77,0,0,1,1.48-.35,3.2,3.2,0,0,1,1.7.5c.53.34,1.15.7,1.85,1.09a16.65,16.65,0,0,0,2.48,1.1,11.11,11.11,0,0,0,3.6.5,9.17,9.17,0,0,0,2.95-.41,6.28,6.28,0,0,0,2-1.07,4,4,0,0,0,1.17-1.54,4.72,4.72,0,0,0,.37-1.81,3.23,3.23,0,0,0-.84-2.3A7.3,7.3,0,0,0,318,146a20.91,20.91,0,0,0-3.16-1.19c-1.19-.35-2.4-.74-3.63-1.15a34.45,34.45,0,0,1-3.63-1.47,12.5,12.5,0,0,1-3.16-2.12,9.68,9.68,0,0,1-2.22-3.16,11,11,0,0,1-.84-4.52,11.52,11.52,0,0,1,1-4.68,10.86,10.86,0,0,1,2.86-3.88,14.43,14.43,0,0,1,4.72-2.66,19.77,19.77,0,0,1,6.54-1,20,20,0,0,1,7.52,1.36,17.1,17.1,0,0,1,5.66,3.59Z" transform="translate(0 -9.24)" fill="#0c404f"/><path d="M355,120.16a21.86,21.86,0,0,1,8.09,1.44,17.7,17.7,0,0,1,6.24,4.1,17.93,17.93,0,0,1,4,6.47,26.87,26.87,0,0,1,0,17.12,18.36,18.36,0,0,1-4,6.51,17.4,17.4,0,0,1-6.24,4.14,21.86,21.86,0,0,1-8.09,1.44,22.1,22.1,0,0,1-8.15-1.44,17.22,17.22,0,0,1-6.26-4.14,18.55,18.55,0,0,1-4-6.51,26.34,26.34,0,0,1,0-17.12,18.11,18.11,0,0,1,4-6.47,17.52,17.52,0,0,1,6.26-4.1A22.1,22.1,0,0,1,355,120.16ZM355,154c3.32,0,5.79-1.12,7.39-3.35s2.39-5.51,2.39-9.83-.8-7.61-2.39-9.87-4.07-3.39-7.39-3.39-5.89,1.14-7.51,3.41S345,136.5,345,140.79s.81,7.56,2.44,9.81S351.6,154,355,154Z" transform="translate(0 -9.24)" fill="#0c404f"/><path d="M419.44,128v21.68a4.25,4.25,0,0,0,.94,2.93,3.17,3.17,0,0,0,2.5,1,4.4,4.4,0,0,0,1.5-.22,9,9,0,0,0,1.05-.44c.3-.16.57-.31.8-.45a1.37,1.37,0,0,1,.7-.22,1.1,1.1,0,0,1,.7.22,3.44,3.44,0,0,1,.59.64l2.88,4.68a14.47,14.47,0,0,1-4.81,2.65,17.81,17.81,0,0,1-5.64.9q-5.22,0-8-2.94t-2.81-8.14V128H393.55v32.8h-9.64V128l-3.47-.55a4.09,4.09,0,0,1-1.81-.8,2,2,0,0,1-.68-1.62v-3.94h6v-3a17.26,17.26,0,0,1,1-6.16,12.5,12.5,0,0,1,7.66-7.57,18.23,18.23,0,0,1,6.24-1,17.05,17.05,0,0,1,5.15.74l-.2,4.83a1.48,1.48,0,0,1-.31.88,1.75,1.75,0,0,1-.72.51,3.81,3.81,0,0,1-1,.23,12.32,12.32,0,0,1-1.25.06,11.77,11.77,0,0,0-3.06.37,5.15,5.15,0,0,0-2.28,1.29,5.84,5.84,0,0,0-1.43,2.42,12.33,12.33,0,0,0-.49,3.72v2.65h17l2.07-11a2.06,2.06,0,0,1,.74-1.2,2.17,2.17,0,0,1,1.4-.43h5v12.59h10.69V128Z" transform="translate(0 -9.24)" fill="#0c404f"/><path d="M493.42,120.78l-12.71,40H473c-.88,0-1.5-.57-1.83-1.72L464,136c-.23-.78-.45-1.55-.64-2.32s-.36-1.54-.49-2.32c-.16.78-.33,1.57-.53,2.36s-.41,1.58-.64,2.36l-7.29,23.05a2,2,0,0,1-2.07,1.72h-7.41l-12.68-40h7.69a3.07,3.07,0,0,1,1.79.51,2.37,2.37,0,0,1,1,1.29L448.42,144c.29,1.17.54,2.31.76,3.43s.41,2.24.57,3.35c.28-1.11.59-2.23.91-3.35s.67-2.26,1-3.43l6.63-21.45a2.45,2.45,0,0,1,.91-1.29,2.71,2.71,0,0,1,1.66-.51h4.25a3,3,0,0,1,1.74.51,2.37,2.37,0,0,1,.95,1.29L474.28,144c.33,1.17.65,2.32,1,3.45s.59,2.26.88,3.37a65.56,65.56,0,0,1,1.44-6.82l5.89-21.37a2.64,2.64,0,0,1,1-1.29,2.74,2.74,0,0,1,1.67-.51Z" transform="translate(0 -9.24)" fill="#0c404f"/><path d="M497.44,126.36A23.75,23.75,0,0,1,514.06,120a16.3,16.3,0,0,1,6.27,1.15,13.17,13.17,0,0,1,4.68,3.2,13.66,13.66,0,0,1,2.91,4.89,18.9,18.9,0,0,1,1,6.24V160.8h-4.37a4.46,4.46,0,0,1-2.11-.41,2.91,2.91,0,0,1-1.17-1.66l-.86-2.89a34.71,34.71,0,0,1-3,2.4,17.44,17.44,0,0,1-3,1.74,16.3,16.3,0,0,1-3.34,1.07,19,19,0,0,1-3.92.37,15.52,15.52,0,0,1-4.68-.68,10.34,10.34,0,0,1-3.7-2.05,9.18,9.18,0,0,1-2.42-3.39,12.08,12.08,0,0,1-.86-4.72,9.3,9.3,0,0,1,.51-3,8.85,8.85,0,0,1,1.66-2.87,13.49,13.49,0,0,1,3-2.57,19.25,19.25,0,0,1,4.5-2.11,38.1,38.1,0,0,1,6.22-1.46,61.94,61.94,0,0,1,8.12-.69v-2.34c0-2.67-.58-4.66-1.72-5.94a6.27,6.27,0,0,0-4.95-1.93,11.85,11.85,0,0,0-3.88.54,16.75,16.75,0,0,0-2.71,1.23l-2.13,1.23a4.25,4.25,0,0,1-2.13.55,2.79,2.79,0,0,1-1.71-.53,4.25,4.25,0,0,1-1.13-1.23Zm22.08,17.35a52.84,52.84,0,0,0-7,.73,19.08,19.08,0,0,0-4.57,1.34,6,6,0,0,0-2.45,1.91,4.11,4.11,0,0,0-.74,2.38,4.19,4.19,0,0,0,1.5,3.63,6.48,6.48,0,0,0,3.92,1.09,11.47,11.47,0,0,0,5.12-1.07,15.22,15.22,0,0,0,4.24-3.26Z" transform="translate(0 -9.24)" fill="#0c404f"/><path d="M547.05,127.72a17.18,17.18,0,0,1,4.45-5.63,9.43,9.43,0,0,1,6.08-2,7.44,7.44,0,0,1,4.45,1.21l-.63,7.22a1.9,1.9,0,0,1-.56,1,1.61,1.61,0,0,1-1,.29,11.08,11.08,0,0,1-1.73-.19,13.52,13.52,0,0,0-2.25-.2,8.09,8.09,0,0,0-2.84.47,7.07,7.07,0,0,0-2.25,1.35A9.21,9.21,0,0,0,549,133.3a21,21,0,0,0-1.43,2.85V160.8H538v-40h5.66a2.33,2.33,0,0,1,2.84,2.42Z" transform="translate(0 -9.24)" fill="#0c404f"/><path d="M573.33,142a18.77,18.77,0,0,0,1.1,5.32,10.82,10.82,0,0,0,2.26,3.71,8.89,8.89,0,0,0,3.33,2.18,12.15,12.15,0,0,0,4.27.72,13.4,13.4,0,0,0,4-.54,19.5,19.5,0,0,0,3-1.21c.85-.44,1.59-.85,2.23-1.21a3.64,3.64,0,0,1,1.85-.55,2,2,0,0,1,1.79.9l2.77,3.51a15.92,15.92,0,0,1-3.59,3.14,20.44,20.44,0,0,1-4.15,2,23.25,23.25,0,0,1-4.41,1.07,31.11,31.11,0,0,1-4.34.31,21.49,21.49,0,0,1-7.77-1.38,17.47,17.47,0,0,1-6.24-4.1,19.31,19.31,0,0,1-4.17-6.71,26,26,0,0,1-1.52-9.26,22,22,0,0,1,1.33-7.7,18.42,18.42,0,0,1,3.8-6.28,18,18,0,0,1,6-4.23,20,20,0,0,1,8.06-1.56,19.49,19.49,0,0,1,7,1.21,15.16,15.16,0,0,1,5.5,3.53,16.45,16.45,0,0,1,3.61,5.69,21.25,21.25,0,0,1,1.3,7.7,6.17,6.17,0,0,1-.47,3,2,2,0,0,1-1.79.76Zm18.37-5.81a11.59,11.59,0,0,0-.52-3.53,8.36,8.36,0,0,0-1.58-2.91,7.41,7.41,0,0,0-2.67-2,9.22,9.22,0,0,0-3.77-.72,8.91,8.91,0,0,0-6.57,2.38,11.67,11.67,0,0,0-3.06,6.75Z" transform="translate(0 -9.24)" fill="#0c404f"/><path d="M39.94,196.44v58H34.05a2.27,2.27,0,0,1-2.42-1.76l-.82-3.86a20.28,20.28,0,0,1-5.56,4.49A15,15,0,0,1,17.94,255a13.27,13.27,0,0,1-6-1.36,13.44,13.44,0,0,1-4.7-4,19.14,19.14,0,0,1-3-6.42,32.6,32.6,0,0,1-1.07-8.73,27.15,27.15,0,0,1,1.21-8.27,19.93,19.93,0,0,1,3.47-6.63,16.17,16.17,0,0,1,5.42-4.39,15.7,15.7,0,0,1,7.1-1.58,14.13,14.13,0,0,1,5.73,1.05,15,15,0,0,1,4.25,2.85v-21.1ZM30.3,224.6a9.45,9.45,0,0,0-3.57-2.81,10.6,10.6,0,0,0-4.15-.82,9.29,9.29,0,0,0-3.94.82,7.91,7.91,0,0,0-3,2.48,11.88,11.88,0,0,0-1.91,4.21,24.29,24.29,0,0,0-.67,6,26.44,26.44,0,0,0,.57,5.94,11.72,11.72,0,0,0,1.62,4,6.2,6.2,0,0,0,2.57,2.23,8.32,8.32,0,0,0,3.4.68,9.9,9.9,0,0,0,5.11-1.25,15.1,15.1,0,0,0,4-3.55Z" transform="translate(0 -9.24)" fill="#0c404f"/><path d="M56.86,235.6A19.14,19.14,0,0,0,58,240.92a11,11,0,0,0,2.27,3.71,8.81,8.81,0,0,0,3.33,2.18,12.15,12.15,0,0,0,4.27.72,13.4,13.4,0,0,0,4-.54,19.5,19.5,0,0,0,3-1.21c.85-.44,1.59-.85,2.22-1.21A3.81,3.81,0,0,1,78.9,244a2,2,0,0,1,1.79.9l2.77,3.51a15.89,15.89,0,0,1-3.59,3.14,20.7,20.7,0,0,1-4.15,2,23.43,23.43,0,0,1-4.41,1.07A31.14,31.14,0,0,1,67,255a21.43,21.43,0,0,1-7.76-1.38A17.34,17.34,0,0,1,53,249.5a19,19,0,0,1-4.17-6.71,25.79,25.79,0,0,1-1.52-9.26,22.21,22.21,0,0,1,1.32-7.7,18.53,18.53,0,0,1,3.81-6.28,17.87,17.87,0,0,1,6-4.23,19.9,19.9,0,0,1,8-1.56,19.55,19.55,0,0,1,7,1.21A15,15,0,0,1,79,218.5a16.16,16.16,0,0,1,3.61,5.69,21.25,21.25,0,0,1,1.31,7.7,6.3,6.3,0,0,1-.47,3,1.93,1.93,0,0,1-1.79.76Zm18.37-5.81a11.59,11.59,0,0,0-.53-3.53,8.29,8.29,0,0,0-1.58-2.91,7.33,7.33,0,0,0-2.67-2,9.17,9.17,0,0,0-3.76-.72A9,9,0,0,0,60.12,223a11.67,11.67,0,0,0-3.06,6.75Z" transform="translate(0 -9.24)" fill="#0c404f"/><path d="M126.17,214.38l-15.88,40h-8.73l-15.88-40h8a3,3,0,0,1,1.81.51,2.43,2.43,0,0,1,1,1.29l7.72,21.37c.42,1.25.78,2.47,1.09,3.67s.59,2.39.82,3.58c.26-1.19.55-2.39.86-3.58s.69-2.42,1.13-3.67l7.88-21.37a2.68,2.68,0,0,1,1-1.29,2.79,2.79,0,0,1,1.68-.51Z" transform="translate(0 -9.24)" fill="#0c404f"/><path d="M137.44,235.6a18.79,18.79,0,0,0,1.09,5.32,10.82,10.82,0,0,0,2.26,3.71,9,9,0,0,0,3.33,2.18,12.2,12.2,0,0,0,4.28.72,13.33,13.33,0,0,0,4-.54,20.08,20.08,0,0,0,3-1.21c.84-.44,1.58-.85,2.22-1.21a3.77,3.77,0,0,1,1.85-.55,2,2,0,0,1,1.8.9l2.76,3.51a15.85,15.85,0,0,1-3.58,3.14,20.52,20.52,0,0,1-4.16,2,23.33,23.33,0,0,1-4.4,1.07,31.35,31.35,0,0,1-4.35.31,21.39,21.39,0,0,1-7.76-1.38,17.17,17.17,0,0,1-6.24-4.1,19.18,19.18,0,0,1-4.18-6.71,26,26,0,0,1-1.52-9.26,22,22,0,0,1,1.33-7.7,18.51,18.51,0,0,1,3.8-6.28,17.91,17.91,0,0,1,6.05-4.23,19.9,19.9,0,0,1,8-1.56,19.49,19.49,0,0,1,7,1.21,15.08,15.08,0,0,1,5.5,3.53,16.31,16.31,0,0,1,3.61,5.69,21.25,21.25,0,0,1,1.3,7.7,6.33,6.33,0,0,1-.46,3,2,2,0,0,1-1.8.76Zm18.37-5.81a11.59,11.59,0,0,0-.53-3.53,8.45,8.45,0,0,0-1.58-2.91,7.33,7.33,0,0,0-2.67-2,9.22,9.22,0,0,0-3.77-.72,9,9,0,0,0-6.57,2.38,11.67,11.67,0,0,0-3.06,6.75Z" transform="translate(0 -9.24)" fill="#0c404f"/><path d="M181.43,196.44v58h-9.64v-58Z" transform="translate(0 -9.24)" fill="#0c404f"/><path d="M208.77,213.76a21.86,21.86,0,0,1,8.09,1.44,17.7,17.7,0,0,1,6.24,4.1,17.93,17.93,0,0,1,4,6.47,26.87,26.87,0,0,1,0,17.12,18.36,18.36,0,0,1-4,6.51,17.4,17.4,0,0,1-6.24,4.14,21.86,21.86,0,0,1-8.09,1.44,22.1,22.1,0,0,1-8.15-1.44,17.22,17.22,0,0,1-6.26-4.14,18.55,18.55,0,0,1-4-6.51,26.51,26.51,0,0,1,0-17.12,18.11,18.11,0,0,1,4-6.47,17.52,17.52,0,0,1,6.26-4.1A22.1,22.1,0,0,1,208.77,213.76Zm0,33.81c3.32,0,5.79-1.12,7.39-3.35s2.4-5.51,2.4-9.83-.8-7.61-2.4-9.87-4.07-3.39-7.39-3.39-5.89,1.14-7.51,3.41-2.44,5.56-2.44,9.85.81,7.56,2.44,9.81S205.39,247.57,208.77,247.57Z" transform="translate(0 -9.24)" fill="#0c404f"/><path d="M245,219.84a20.89,20.89,0,0,1,5.57-4.48,14.94,14.94,0,0,1,7.34-1.72,13.12,13.12,0,0,1,6,1.37,13.38,13.38,0,0,1,4.68,4,18.89,18.89,0,0,1,3.05,6.39,32.42,32.42,0,0,1,1.07,8.72,27.63,27.63,0,0,1-1.21,8.31A20.66,20.66,0,0,1,268,249a16,16,0,0,1-5.42,4.38,15.71,15.71,0,0,1-7.12,1.58,14.36,14.36,0,0,1-5.74-1,14.17,14.17,0,0,1-4.25-2.87v16.38h-9.63V214.38h5.89a2.37,2.37,0,0,1,2.46,1.76Zm.5,24.18a9.61,9.61,0,0,0,3.57,2.81,10.59,10.59,0,0,0,4.2.82,9.12,9.12,0,0,0,3.93-.82,7.83,7.83,0,0,0,3-2.49,12.29,12.29,0,0,0,1.89-4.24,24.24,24.24,0,0,0,.66-6,27.26,27.26,0,0,0-.56-6,11.69,11.69,0,0,0-1.62-4A6.44,6.44,0,0,0,258,222a7.9,7.9,0,0,0-3.41-.7,9.8,9.8,0,0,0-5.11,1.26,15.79,15.79,0,0,0-4,3.57Z" transform="translate(0 -9.24)" fill="#0c404f"/><path d="M280.17,254.4v-40h5.89a2.37,2.37,0,0,1,2.46,1.76l.62,3a23.37,23.37,0,0,1,2.21-2.14,14,14,0,0,1,2.45-1.68,13.27,13.27,0,0,1,2.81-1.11,12.64,12.64,0,0,1,3.3-.41,9.33,9.33,0,0,1,6.22,2.05,12.33,12.33,0,0,1,3.65,5.44,12,12,0,0,1,2.34-3.42,12.91,12.91,0,0,1,3.08-2.32,14.08,14.08,0,0,1,3.56-1.32,17,17,0,0,1,3.81-.43,16.12,16.12,0,0,1,5.89,1,11.4,11.4,0,0,1,4.33,3,13,13,0,0,1,2.67,4.75,20.82,20.82,0,0,1,.91,6.44V254.4h-9.63V228.93q0-3.83-1.68-5.75a6.14,6.14,0,0,0-4.91-1.93,7.47,7.47,0,0,0-2.75.5,6.43,6.43,0,0,0-2.22,1.47,6.65,6.65,0,0,0-1.51,2.39,9.47,9.47,0,0,0-.54,3.32V254.4h-9.67V228.93q0-4-1.62-5.85a6,6,0,0,0-4.74-1.83,7.79,7.79,0,0,0-3.92,1,13,13,0,0,0-3.37,2.83V254.4Z" transform="translate(0 -9.24)" fill="#0c404f"/><path d="M352.91,235.6a19.14,19.14,0,0,0,1.09,5.32,11,11,0,0,0,2.26,3.71,8.93,8.93,0,0,0,3.34,2.18,12.11,12.11,0,0,0,4.27.72,13.33,13.33,0,0,0,4-.54,19.65,19.65,0,0,0,3-1.21c.84-.44,1.58-.85,2.22-1.21a3.8,3.8,0,0,1,1.85-.55,2,2,0,0,1,1.8.9l2.77,3.51a15.89,15.89,0,0,1-3.59,3.14,20.7,20.7,0,0,1-4.15,2,23.62,23.62,0,0,1-4.41,1.07A31.35,31.35,0,0,1,363,255a21.43,21.43,0,0,1-7.76-1.38,17.34,17.34,0,0,1-6.24-4.1,19,19,0,0,1-4.17-6.71,25.79,25.79,0,0,1-1.52-9.26,22.21,22.21,0,0,1,1.32-7.7,18.51,18.51,0,0,1,3.8-6.28,17.91,17.91,0,0,1,6.05-4.23,19.9,19.9,0,0,1,8.05-1.56,19.49,19.49,0,0,1,7,1.21,15,15,0,0,1,5.5,3.53,16.16,16.16,0,0,1,3.61,5.69,21.25,21.25,0,0,1,1.31,7.7,6.3,6.3,0,0,1-.47,3,1.93,1.93,0,0,1-1.8.76Zm18.37-5.81a11.59,11.59,0,0,0-.53-3.53,8.45,8.45,0,0,0-1.58-2.91,7.33,7.33,0,0,0-2.67-2,9.17,9.17,0,0,0-3.76-.72,8.93,8.93,0,0,0-6.57,2.38,11.74,11.74,0,0,0-3.07,6.75Z" transform="translate(0 -9.24)" fill="#0c404f"/><path d="M396.16,219.3a25.81,25.81,0,0,1,2.55-2.25,16.78,16.78,0,0,1,2.85-1.75,15.71,15.71,0,0,1,3.22-1.13,16.23,16.23,0,0,1,3.74-.41,14.34,14.34,0,0,1,5.81,1.11,11.56,11.56,0,0,1,4.24,3.12,13.82,13.82,0,0,1,2.57,4.8,20.51,20.51,0,0,1,.88,6.14V254.4h-9.64V228.93a8.65,8.65,0,0,0-1.67-5.67,6.29,6.29,0,0,0-5.11-2,9.92,9.92,0,0,0-4.68,1.13,16.62,16.62,0,0,0-4.14,3.08V254.4h-9.63v-40H393a2.37,2.37,0,0,1,2.46,1.76Z" transform="translate(0 -9.24)" fill="#0c404f"/><path d="M443.93,255q-5.22,0-8-2.94t-2.79-8.14V221.6H429a1.87,1.87,0,0,1-1.33-.51,2,2,0,0,1-.54-1.52v-3.82l6.43-1.06,2-10.92a2.1,2.1,0,0,1,.74-1.2,2.17,2.17,0,0,1,1.4-.43h5v12.59h10.69v6.87H442.76v21.68a4.32,4.32,0,0,0,.92,2.93,3.17,3.17,0,0,0,2.52,1,4.68,4.68,0,0,0,1.5-.21,11,11,0,0,0,1.05-.45c.3-.16.57-.31.8-.45a1.4,1.4,0,0,1,.7-.22,1.16,1.16,0,0,1,.71.22,3.44,3.44,0,0,1,.58.64l2.89,4.68a14.51,14.51,0,0,1-4.84,2.65A18,18,0,0,1,443.93,255Z" transform="translate(0 -9.24)" fill="#0c404f"/><path d="M507.23,222.85a4.23,4.23,0,0,1-.84.85,1.92,1.92,0,0,1-1.19.32,2.65,2.65,0,0,1-1.44-.45q-.7-.45-1.68-1a13,13,0,0,0-2.32-1,10.59,10.59,0,0,0-3.33-.45A10.22,10.22,0,0,0,492,222a8.52,8.52,0,0,0-3.18,2.63,12,12,0,0,0-1.89,4.15,22.67,22.67,0,0,0-.62,5.52A21.94,21.94,0,0,0,487,240a12.24,12.24,0,0,0,2,4.19,8.46,8.46,0,0,0,3.12,2.57,9.37,9.37,0,0,0,4.13.88,10.19,10.19,0,0,0,3.73-.57,11.64,11.64,0,0,0,2.4-1.24c.65-.46,1.21-.87,1.69-1.25a2.56,2.56,0,0,1,1.62-.57,2,2,0,0,1,1.76.9l2.77,3.51a17.53,17.53,0,0,1-3.47,3.14,19.26,19.26,0,0,1-3.89,2,20.06,20.06,0,0,1-4.13,1.07,28.87,28.87,0,0,1-4.23.31,17.78,17.78,0,0,1-7-1.38,16.3,16.3,0,0,1-5.73-4,19.29,19.29,0,0,1-3.89-6.49,27.33,27.33,0,0,1-.15-16.93,18.5,18.5,0,0,1,3.72-6.51,17.14,17.14,0,0,1,6.09-4.31,21,21,0,0,1,8.34-1.56,19.9,19.9,0,0,1,7.86,1.44,19.17,19.17,0,0,1,6.07,4.14Z" transform="translate(0 -9.24)" fill="#0c404f"/><path d="M533.17,213.76a21.86,21.86,0,0,1,8.09,1.44,17.7,17.7,0,0,1,6.24,4.1,17.93,17.93,0,0,1,4,6.47,26.87,26.87,0,0,1,0,17.12,18.36,18.36,0,0,1-4,6.51,17.4,17.4,0,0,1-6.24,4.14,21.86,21.86,0,0,1-8.09,1.44,22.1,22.1,0,0,1-8.15-1.44,17.31,17.31,0,0,1-6.26-4.14,18.55,18.55,0,0,1-4-6.51,26.51,26.51,0,0,1,0-17.12,18.11,18.11,0,0,1,4-6.47,17.61,17.61,0,0,1,6.26-4.1A22.1,22.1,0,0,1,533.17,213.76Zm0,33.81q5,0,7.39-3.35t2.4-9.83q0-6.48-2.4-9.87t-7.39-3.39c-3.38,0-5.89,1.14-7.51,3.41s-2.44,5.56-2.44,9.85.81,7.56,2.44,9.81S529.79,247.57,533.17,247.57Z" transform="translate(0 -9.24)" fill="#0c404f"/><path d="M560.27,254.4v-40h5.89a2.37,2.37,0,0,1,2.46,1.76l.62,3a22.23,22.23,0,0,1,2.21-2.14,14,14,0,0,1,2.45-1.68,13.06,13.06,0,0,1,2.81-1.11,12.64,12.64,0,0,1,3.3-.41,9.33,9.33,0,0,1,6.22,2.05,12.23,12.23,0,0,1,3.64,5.44,12.46,12.46,0,0,1,2.34-3.42,13.32,13.32,0,0,1,3.08-2.32,14.3,14.3,0,0,1,3.57-1.32,16.93,16.93,0,0,1,3.81-.43,16.07,16.07,0,0,1,5.88,1,11.33,11.33,0,0,1,4.33,3,13,13,0,0,1,2.67,4.75,20.52,20.52,0,0,1,.92,6.44V254.4h-9.63V228.93q0-3.83-1.68-5.75a6.15,6.15,0,0,0-4.91-1.93,7.47,7.47,0,0,0-2.75.5,6.56,6.56,0,0,0-2.23,1.47,6.77,6.77,0,0,0-1.5,2.39,9.47,9.47,0,0,0-.54,3.32V254.4h-9.68V228.93q0-4-1.61-5.85a6,6,0,0,0-4.74-1.83,7.76,7.76,0,0,0-3.92,1,13,13,0,0,0-3.38,2.83V254.4Z" transform="translate(0 -9.24)" fill="#0c404f"/><path d="M634.72,219.84a20.93,20.93,0,0,1,5.58-4.48,14.9,14.9,0,0,1,7.33-1.72,13.16,13.16,0,0,1,6,1.37,13.55,13.55,0,0,1,4.68,4,19.07,19.07,0,0,1,3,6.39,32.42,32.42,0,0,1,1.07,8.72,27.32,27.32,0,0,1-1.21,8.31,20.28,20.28,0,0,1-3.45,6.63,15.85,15.85,0,0,1-5.42,4.38,15.68,15.68,0,0,1-7.12,1.58,14.35,14.35,0,0,1-5.73-1,14,14,0,0,1-4.25-2.87v16.38H625.6V214.38h5.89a2.37,2.37,0,0,1,2.45,1.76Zm.51,24.18a9.45,9.45,0,0,0,3.57,2.81,10.51,10.51,0,0,0,4.19.82,9.14,9.14,0,0,0,3.94-.82,7.8,7.8,0,0,0,3-2.49,12.29,12.29,0,0,0,1.89-4.24,23.75,23.75,0,0,0,.67-6,26.6,26.6,0,0,0-.57-6,11.49,11.49,0,0,0-1.62-4,6.41,6.41,0,0,0-2.55-2.22,7.93,7.93,0,0,0-3.41-.7,9.75,9.75,0,0,0-5.11,1.26,15.62,15.62,0,0,0-4,3.57Z" transform="translate(0 -9.24)" fill="#0c404f"/><path d="M669,220a23.77,23.77,0,0,1,16.62-6.32,16.39,16.39,0,0,1,6.28,1.15,13.49,13.49,0,0,1,4.68,3.2,13.74,13.74,0,0,1,2.9,4.9,18.55,18.55,0,0,1,1,6.23V254.4h-4.37A4.49,4.49,0,0,1,694,254a2.91,2.91,0,0,1-1.17-1.66l-.86-2.89a34.71,34.71,0,0,1-3,2.4,17.44,17.44,0,0,1-3,1.74,16.11,16.11,0,0,1-3.34,1.07,19,19,0,0,1-3.92.37,15.52,15.52,0,0,1-4.68-.68,10.34,10.34,0,0,1-3.7-2.05,9.18,9.18,0,0,1-2.42-3.39,12.08,12.08,0,0,1-.86-4.72,9.3,9.3,0,0,1,.51-3,8.85,8.85,0,0,1,1.66-2.87,13.49,13.49,0,0,1,3-2.57,19.14,19.14,0,0,1,4.51-2.11,37.85,37.85,0,0,1,6.22-1.46,60.22,60.22,0,0,1,8.11-.68v-2.35c0-2.67-.57-4.66-1.72-5.94a6.25,6.25,0,0,0-5-1.93,11.85,11.85,0,0,0-3.88.54,16.75,16.75,0,0,0-2.71,1.23l-2.13,1.23a4.24,4.24,0,0,1-2.12.55,2.79,2.79,0,0,1-1.72-.53,4.39,4.39,0,0,1-1.13-1.23ZM691,237.31a54.77,54.77,0,0,0-7,.73,18.85,18.85,0,0,0-4.56,1.34,6,6,0,0,0-2.46,1.91,4.11,4.11,0,0,0-.74,2.38,4.19,4.19,0,0,0,1.5,3.63,6.5,6.5,0,0,0,3.92,1.09,11.55,11.55,0,0,0,5.13-1.07,15.33,15.33,0,0,0,4.23-3.26Z" transform="translate(0 -9.24)" fill="#0c404f"/><path d="M718.49,219.3a25.92,25.92,0,0,1,2.56-2.25,16.31,16.31,0,0,1,2.84-1.75,15.92,15.92,0,0,1,3.22-1.13,16.32,16.32,0,0,1,3.75-.41,14.37,14.37,0,0,1,5.81,1.11A11.45,11.45,0,0,1,740.9,218a13.66,13.66,0,0,1,2.57,4.8,20.2,20.2,0,0,1,.88,6.14V254.4h-9.63V228.93a8.6,8.6,0,0,0-1.68-5.67,6.28,6.28,0,0,0-5.11-2,10,10,0,0,0-4.68,1.13,16.58,16.58,0,0,0-4.13,3.08V254.4h-9.64v-40h5.89a2.37,2.37,0,0,1,2.46,1.76Z" transform="translate(0 -9.24)" fill="#0c404f"/><path d="M788.73,214.38l-21.8,51a3.91,3.91,0,0,1-1.11,1.54,3.42,3.42,0,0,1-2.09.52h-7.17L764,251.39l-16.18-37h8.46a2.63,2.63,0,0,1,1.78.55,3.44,3.44,0,0,1,.95,1.25l8.5,20.75a19.4,19.4,0,0,1,.73,2.1c.19.7.38,1.42.56,2.15.24-.73.47-1.45.7-2.17s.5-1.42.78-2.12l8-20.71a2.87,2.87,0,0,1,1-1.29,2.74,2.74,0,0,1,1.62-.51Z" transform="translate(0 -9.24)" fill="#0c404f"/><path d="M789.28,249.09a6,6,0,0,1,.45-2.3,5.49,5.49,0,0,1,1.23-1.87,5.73,5.73,0,0,1,1.87-1.25,5.86,5.86,0,0,1,2.34-.47,5.8,5.8,0,0,1,2.32.47,6.19,6.19,0,0,1,1.87,1.25,5.89,5.89,0,0,1,1.27,1.87,5.83,5.83,0,0,1,.46,2.3,5.72,5.72,0,0,1-.46,2.32,6,6,0,0,1-1.27,1.86,5.77,5.77,0,0,1-1.87,1.22,6,6,0,0,1-2.32.45,6,6,0,0,1-2.34-.45,5.37,5.37,0,0,1-1.87-1.22,5.54,5.54,0,0,1-1.23-1.86A5.89,5.89,0,0,1,789.28,249.09Z" transform="translate(0 -9.24)" fill="#0c404f"/></g></g></svg>