<svg xmlns="http://www.w3.org/2000/svg" width="260" height="260" viewBox="0 0 260 260"><title>favicon</title><g id="e908d808-616b-4e4e-b961-638e047431cb" data-name="Layer 2"><g id="adc8eddf-d429-40bb-881c-2a6879f496be" data-name="Layer 1"><rect width="260" height="260" fill="none"/><g opacity="0.5"><path d="M143.3,128.79a52.7,52.7,0,0,1-3.49,19.39A45.92,45.92,0,0,1,130,163.62a44.48,44.48,0,0,1-15.21,10.17,51.18,51.18,0,0,1-19.68,3.65,51.49,51.49,0,0,1-19.72-3.65,44.73,44.73,0,0,1-15.27-10.17,45.53,45.53,0,0,1-9.84-15.44,55.61,55.61,0,0,1,0-38.78A45.49,45.49,0,0,1,60.12,94,44.61,44.61,0,0,1,75.39,83.79a51.68,51.68,0,0,1,19.72-3.65,50.81,50.81,0,0,1,19.68,3.69A45.05,45.05,0,0,1,130,94a45.55,45.55,0,0,1,9.81,15.4A52.7,52.7,0,0,1,143.3,128.79Zm-18.17,0a44.35,44.35,0,0,0-2.07-14,29.86,29.86,0,0,0-6-10.57,25.66,25.66,0,0,0-9.45-6.65,32.44,32.44,0,0,0-12.54-2.3,32.66,32.66,0,0,0-12.57,2.3A25.84,25.84,0,0,0,73,104.17a29.82,29.82,0,0,0-6,10.57,43.48,43.48,0,0,0-2.11,14A43.54,43.54,0,0,0,67,142.85a29.38,29.38,0,0,0,6,10.53A26,26,0,0,0,82.54,160a32.85,32.85,0,0,0,12.57,2.3,32.62,32.62,0,0,0,12.54-2.3,25.83,25.83,0,0,0,9.45-6.62,29.42,29.42,0,0,0,6-10.53A44.41,44.41,0,0,0,125.13,128.79Z" fill="#ea005a"/><path d="M224.34,81.19V95.74H195.71v80.65H178V95.74H149.23V81.19Z" fill="#ea005a"/></g></g></g></svg>